<mxfile host="app.diagrams.net" modified="2023-06-29T10:50:28.751Z" agent="Mozilla/5.0 (Windows NT 10.0; Win64; x64) AppleWebKit/537.36 (KHTML, like Gecko) Chrome/114.0.0.0 Safari/537.36" etag="QDsBetfzUeeprLfawWW-" version="21.3.0" type="github">
  <diagram name="Page-1" id="H4aILUK7hrcuFuUepmV5">
    <mxGraphModel dx="1221" dy="611" grid="1" gridSize="10" guides="1" tooltips="1" connect="1" arrows="1" fold="1" page="1" pageScale="1" pageWidth="827" pageHeight="1169" math="0" shadow="0">
      <root>
        <mxCell id="0" />
        <mxCell id="1" parent="0" />
        <mxCell id="_vo4QsdGtxCIZdbkorv4-1" value="User" style="shape=umlActor;verticalLabelPosition=bottom;verticalAlign=top;html=1;outlineConnect=0;" vertex="1" parent="1">
          <mxGeometry x="70" y="300" width="30" height="60" as="geometry" />
        </mxCell>
        <mxCell id="_vo4QsdGtxCIZdbkorv4-5" value="" style="edgeStyle=none;html=1;endArrow=none;verticalAlign=bottom;rounded=0;" edge="1" parent="1">
          <mxGeometry width="160" relative="1" as="geometry">
            <mxPoint x="110" y="320" as="sourcePoint" />
            <mxPoint x="200" y="320" as="targetPoint" />
          </mxGeometry>
        </mxCell>
        <mxCell id="_vo4QsdGtxCIZdbkorv4-7" value="Inventory App" style="shape=rect;html=1;verticalAlign=top;fontStyle=1;whiteSpace=wrap;align=center;" vertex="1" parent="1">
          <mxGeometry x="200" y="260" width="230" height="120" as="geometry" />
        </mxCell>
        <mxCell id="_vo4QsdGtxCIZdbkorv4-8" value="" style="edgeStyle=none;html=1;endArrow=none;verticalAlign=bottom;rounded=0;" edge="1" parent="1">
          <mxGeometry width="160" relative="1" as="geometry">
            <mxPoint x="430" y="319.5" as="sourcePoint" />
            <mxPoint x="520" y="319.5" as="targetPoint" />
          </mxGeometry>
        </mxCell>
        <mxCell id="_vo4QsdGtxCIZdbkorv4-9" value="Database" style="shape=cylinder3;whiteSpace=wrap;html=1;boundedLbl=1;backgroundOutline=1;size=15;" vertex="1" parent="1">
          <mxGeometry x="520" y="280" width="130" height="80" as="geometry" />
        </mxCell>
        <mxCell id="_vo4QsdGtxCIZdbkorv4-10" value="Create Item" style="ellipse;whiteSpace=wrap;html=1;" vertex="1" parent="1">
          <mxGeometry x="240" y="290" width="140" height="70" as="geometry" />
        </mxCell>
      </root>
    </mxGraphModel>
  </diagram>
</mxfile>
